<svg width="66" height="70" viewBox="0 0 66 70" fill="none" xmlns="http://www.w3.org/2000/svg">
  <path d="M56.9199 8.75V0H11.2499C8.35894 0.0132322 5.59121 1.17229 3.55355 3.22308C1.51588 5.27387 0.374576 8.04902 0.379901 10.94V59.06C0.374576 61.951 1.51588 64.7261 3.55355 66.7769C5.59121 68.8277 8.35894 69.9868 11.2499 70H65.6199V8.75H56.9199ZM4.72988 10.94C4.72725 10.0812 4.89381 9.23021 5.22005 8.43573C5.54629 7.64125 6.02581 6.91878 6.63124 6.30963C7.23668 5.70048 7.95621 5.21659 8.74868 4.8855C9.54114 4.55441 10.3911 4.38263 11.2499 4.38H52.5699V48.12H11.2499C8.89645 48.1229 6.60785 48.8916 4.72988 50.31V10.94ZM11.2499 65.62C9.51008 65.62 7.84152 64.9288 6.61129 63.6986C5.38105 62.4684 4.6899 60.7998 4.6899 59.06C4.6899 57.3202 5.38105 55.6516 6.61129 54.4214C7.84152 53.1911 9.51008 52.5 11.2499 52.5H56.9199V13.13H61.2699V56.88H19.9999V61.25H61.3199V65.62H11.2499Z" fill="#3F3D56"/>
</svg>
