<svg width="80" height="76" viewBox="0 0 80 76" fill="none" xmlns="http://www.w3.org/2000/svg">
  <path d="M3 8.6V50.6C3.01845 52.0951 3.6267 53.5224 4.69236 54.5712C5.75802 55.62 7.19481 56.2054 8.69 56.2H71.29C72.7852 56.2054 74.222 55.62 75.2876 54.5712C76.3533 53.5224 76.9615 52.0951 76.98 50.6V8.6C76.9615 7.10491 76.3533 5.67767 75.2876 4.62887C74.222 3.58006 72.7852 2.99463 71.29 3.00002H8.7C7.20308 2.99199 5.76373 3.57624 4.69591 4.62533C3.62809 5.67441 3.01846 7.10317 3 8.6V8.6Z" stroke="#3F3D56" stroke-width="5" stroke-linecap="round" stroke-linejoin="round"/>
  <path d="M3.00977 45H76.9898" stroke="#3F3D56" stroke-width="5" stroke-linecap="round" stroke-linejoin="round"/>
  <path d="M20.0801 73H59.9201" stroke="#3F3D56" stroke-width="5" stroke-linecap="round" stroke-linejoin="round"/>
  <path d="M31.4598 56.2C31.4598 62.08 29.4598 69.08 26.3398 73" stroke="#3F3D56" stroke-width="5" stroke-linecap="round" stroke-linejoin="round"/>
  <path d="M53.66 73C50.53 69.08 48.54 62.08 48.54 56.2" stroke="#3F3D56" stroke-width="5" stroke-linecap="round" stroke-linejoin="round"/>
</svg>
