<svg width="86" height="72" viewBox="0 0 86 72" fill="none" xmlns="http://www.w3.org/2000/svg">
  <path d="M84.53 32.3L43.42 1.29999C43.1733 1.11959 42.8756 1.02234 42.57 1.02234C42.2644 1.02234 41.9667 1.11959 41.72 1.29999L1.46004 32.2C1.33087 32.2908 1.22313 32.4088 1.14449 32.5457C1.06585 32.6825 1.01819 32.835 1.00484 32.9923C0.991493 33.1496 1.01283 33.3079 1.06728 33.4561C1.12173 33.6043 1.208 33.7387 1.32003 33.85C1.56265 34.0879 1.88208 34.2317 2.22109 34.2556C2.56009 34.2794 2.89648 34.1817 3.17 33.98L12.48 26.82V69.82C12.5006 70.1481 12.6497 70.4548 12.8949 70.6738C13.1401 70.8928 13.4617 71.0064 13.79 70.99H71.23C71.4179 70.9886 71.6035 70.9488 71.7754 70.8732C71.9474 70.7975 72.102 70.6875 72.23 70.55L72.54 70.2C72.724 70.0012 72.8274 69.7409 72.83 69.47V26.56L82.83 34.09C83.0751 34.2738 83.3737 34.3722 83.68 34.37C83.8666 34.3723 84.0517 34.3362 84.2237 34.264C84.3957 34.1917 84.5511 34.0849 84.68 33.95C84.7915 33.8381 84.8771 33.703 84.9307 33.5544C84.9844 33.4058 85.0048 33.2473 84.9905 33.09C84.9762 32.9326 84.9275 32.7804 84.848 32.6439C84.7684 32.5074 84.6599 32.39 84.53 32.3ZM70.23 68.65H15.11V25.26C15.1097 25.126 15.0826 24.9933 15.03 24.87L42.58 3.71002L70.23 24.58V68.65Z" fill="#3F3D56" stroke="#3F3D56" stroke-width="2" stroke-miterlimit="10"/>
  <path d="M36 37.94C36.1865 37.95 36.3734 37.95 36.56 37.94C37.7952 37.7962 38.9326 37.1972 39.75 36.26C40.2537 35.665 40.6233 34.9685 40.8338 34.2179C41.0443 33.4673 41.0908 32.6801 40.9699 31.91C40.7893 30.4826 40.0643 29.1802 38.9463 28.2747C37.8283 27.3691 36.4037 26.9303 34.9699 27.05C33.7347 27.1938 32.5974 27.7928 31.78 28.73C31.278 29.326 30.9094 30.0226 30.6989 30.7729C30.4885 31.5232 30.4411 32.3099 30.56 33.08C30.7423 34.404 31.3897 35.6198 32.3864 36.5102C33.383 37.4006 34.6639 37.9074 36 37.94ZM33.89 30.13C34.2543 29.6976 34.7687 29.4189 35.33 29.35H35.56C36.2845 29.4254 36.9605 29.7497 37.4728 30.2675C37.9851 30.7853 38.3022 31.4647 38.37 32.19C38.4475 32.6514 38.4251 33.124 38.3043 33.576C38.1836 34.028 37.9673 34.4488 37.6699 34.81C37.3056 35.2424 36.7912 35.5211 36.2299 35.59C35.4685 35.5727 34.7404 35.2739 34.1864 34.7512C33.6323 34.2286 33.2916 33.5192 33.2299 32.76C33.1454 32.2999 33.1606 31.8271 33.2745 31.3734C33.3884 30.9196 33.5983 30.4957 33.89 30.13Z" fill="#3F3D56" stroke="#3F3D56" stroke-width="2" stroke-miterlimit="10"/>
  <path d="M49.1498 37.89C49.365 37.922 49.5822 37.9387 49.7998 37.94C51.1202 37.8996 52.3849 37.3986 53.3748 36.5238C54.3647 35.6489 55.0173 34.4555 55.2198 33.15C55.3608 32.3808 55.3338 31.5901 55.1405 30.8324C54.9471 30.0746 54.5921 29.3676 54.0998 28.76C53.3221 27.8072 52.2165 27.1795 50.9998 27C49.5716 26.8663 48.1463 27.2837 47.0159 28.1668C45.8855 29.0499 45.1356 30.3319 44.9198 31.75C44.7809 32.5177 44.809 33.3063 45.0023 34.0622C45.1956 34.818 45.5494 35.5233 46.0398 36.13C46.8153 37.0904 47.9273 37.7196 49.1498 37.89ZM47.4798 32.13C47.5645 31.4127 47.8909 30.7456 48.4053 30.2385C48.9197 29.7314 49.5913 29.4146 50.3098 29.34H50.5898C51.1431 29.4205 51.6442 29.7105 51.9898 30.15C52.28 30.5182 52.4874 30.9446 52.5979 31.4002C52.7083 31.8558 52.7192 32.3298 52.6298 32.79C52.548 33.5537 52.1857 34.2599 51.613 34.7717C51.0402 35.2835 50.2979 35.5644 49.5298 35.56C48.9758 35.4806 48.4721 35.1949 48.1198 34.76C47.8332 34.3918 47.6281 33.967 47.5177 33.5136C47.4074 33.0603 47.3945 32.5887 47.4798 32.13Z" fill="#3F3D56" stroke="#3F3D56" stroke-width="2" stroke-miterlimit="10"/>
  <path d="M59.7102 44.2C60.1912 44.3566 60.6944 44.4342 61.2002 44.43C61.9155 44.4293 62.6233 44.283 63.2802 44C64.0363 43.6676 64.7185 43.1878 65.2868 42.5885C65.8552 41.9893 66.2983 41.2826 66.5902 40.51C67.6902 37.62 66.4302 34.58 63.7802 33.72C62.6046 33.3573 61.3379 33.4282 60.2102 33.92C59.4559 34.2552 58.7752 34.7361 58.2072 35.335C57.6392 35.9339 57.1951 36.639 56.9002 37.41C55.8002 40.3 57.0602 43.34 59.7102 44.2ZM59.3902 38.2C59.5666 37.7306 59.8341 37.3007 60.1773 36.9351C60.5206 36.5696 60.9328 36.2755 61.3902 36.07C61.689 35.9354 62.0125 35.8638 62.3402 35.86C62.5443 35.8607 62.7469 35.8945 62.9402 35.96C64.2302 36.38 64.7902 38.1301 64.1602 39.7801C63.8021 40.727 63.0828 41.4931 62.1602 41.91C61.6778 42.1331 61.1313 42.1757 60.6202 42.0301C59.3102 41.5801 58.7502 39.83 59.3902 38.17V38.2Z" fill="#3F3D56" stroke="#3F3D56" stroke-width="2" stroke-miterlimit="10"/>
  <path d="M27.3599 53.87V54C27.3599 58.32 31.5399 61.58 37.0799 61.58H48.3899C53.9499 61.58 57.9799 58.39 57.9799 54V53.83C57.9799 46.77 51.1099 41.03 42.6699 41.03C34.2299 41.03 27.3599 46.81 27.3599 53.87ZM42.6699 43.41C49.6699 43.41 55.3599 48.1 55.3599 53.87V54C55.3599 57 52.4299 59.23 48.3599 59.23H37.0799C32.9699 59.23 29.9799 57.03 29.9799 54V53.83C29.9999 48.1 35.6699 43.41 42.6699 43.41Z" fill="#3F3D56" stroke="#3F3D56" stroke-width="2" stroke-miterlimit="10"/>
  <path d="M29.5302 37.41C29.2383 36.6374 28.7951 35.9308 28.2268 35.3315C27.6584 34.7323 26.9762 34.2524 26.2201 33.92C25.0926 33.4273 23.8256 33.3563 22.6502 33.72C20.0002 34.58 18.7402 37.63 19.8402 40.51C20.1336 41.2818 20.5772 41.9877 21.1453 42.5867C21.7135 43.1858 22.395 43.6662 23.1502 44C23.8106 44.283 24.5216 44.4293 25.2401 44.43C25.7426 44.4335 26.2424 44.3558 26.7201 44.2C29.3801 43.34 30.6402 40.3 29.5302 37.41ZM25.8302 42C25.3156 42.1454 24.7662 42.1029 24.2802 41.88C23.8311 41.6705 23.4277 41.3746 23.0931 41.0091C22.7585 40.6436 22.4993 40.2158 22.3302 39.75C21.6902 38.1 22.2501 36.35 23.5501 35.93C24.0596 35.7766 24.6077 35.8158 25.0902 36.04C26.0128 36.4569 26.7321 37.223 27.0902 38.17C27.6802 39.83 27.1202 41.58 25.8302 42Z" fill="#3F3D56" stroke="#3F3D56" stroke-width="2" stroke-miterlimit="10"/>
</svg>
