<svg width="68" height="72" viewBox="0 0 68 72" fill="none" xmlns="http://www.w3.org/2000/svg">
  <path d="M57.8401 60.32C63.8483 53.6617 67.1789 45.0149 67.19 36.0465C67.201 27.0782 63.8919 18.4232 57.9002 11.75C57.8669 11.6944 57.8302 11.641 57.7902 11.59C57.7902 11.59 57.7202 11.54 57.6802 11.51C54.6742 8.21622 51.0178 5.58158 46.9419 3.77258C42.8661 1.96358 38.4594 1.01952 34.0002 1C15.7002 1 0.810214 16.7 0.810214 36C0.784203 44.8477 4.02456 53.3938 9.91019 60C9.96344 60.2023 10.0665 60.3879 10.2101 60.54C10.3407 60.6687 10.4977 60.7677 10.6702 60.83C13.6905 64.0533 17.3465 66.6149 21.4073 68.3533C25.468 70.0916 29.8452 70.9688 34.2622 70.9293C38.6793 70.8898 43.0401 69.9346 47.0691 68.124C51.0982 66.3133 54.708 63.6867 57.6702 60.41H57.7301C57.7301 60.41 57.8101 60.35 57.8401 60.32ZM3.35013 37.32H18.8301C18.6234 44.7447 15.9255 51.8842 11.1702 57.59C6.36191 51.9028 3.60735 44.763 3.35013 37.32ZM64.6502 34.68H49.1702C49.4213 27.2789 52.1425 20.1748 56.9002 14.5C61.6691 20.1698 64.3981 27.2756 64.6502 34.68ZM46.6502 34.68H35.2001V3.67999C42.7575 4.00624 49.9077 7.19523 55.2001 12.6C49.9291 18.7769 46.9174 26.5639 46.6602 34.68H46.6502ZM32.6502 34.68H21.2902C21.0045 26.6141 18.0061 18.8805 12.7802 12.73C12.7802 12.73 12.7802 12.73 12.7802 12.68C18.0411 7.26594 25.1601 4.0495 32.7001 3.67999V34.68H32.6502ZM21.3002 37.32H32.6502V68.32C25.188 67.9554 18.1353 64.8002 12.8902 59.48C18.1456 53.2696 21.1262 45.4528 21.3401 37.32H21.3002ZM35.1602 37.32H46.6202C46.8673 45.4292 49.8607 53.2143 55.1101 59.4C49.8189 64.8064 42.668 67.9958 35.1101 68.32L35.1602 37.32ZM49.1602 37.32H64.6402C64.3881 44.7244 61.6591 51.8302 56.8902 57.5C52.1347 51.8246 49.4169 44.7202 49.1702 37.32H49.1602ZM11.0002 14.59C15.7585 20.235 18.5027 27.3031 18.8002 34.68H3.3201C3.57161 27.315 6.2745 20.2447 11.0002 14.59Z" fill="#3F3D56" stroke="#3F3D56" stroke-miterlimit="10"/>
</svg>
