<svg width="0" height="0" class="hidden">
  <symbol fill="none" xmlns="http://www.w3.org/2000/svg" viewBox="0 0 80 76" id="electronics">
    <path d="M3 8.6V50.6C3.01845 52.0951 3.6267 53.5224 4.69236 54.5712C5.75802 55.62 7.19481 56.2054 8.69 56.2H71.29C72.7852 56.2054 74.222 55.62 75.2876 54.5712C76.3533 53.5224 76.9615 52.0951 76.98 50.6V8.6C76.9615 7.10491 76.3533 5.67767 75.2876 4.62887C74.222 3.58006 72.7852 2.99463 71.29 3.00002H8.7C7.20308 2.99199 5.76373 3.57624 4.69591 4.62533C3.62809 5.67441 3.01846 7.10317 3 8.6V8.6Z" stroke="#3F3D56" stroke-width="5" stroke-linecap="round" stroke-linejoin="round"></path>
    <path d="M3.00977 45H76.9898" stroke="#3F3D56" stroke-width="5" stroke-linecap="round" stroke-linejoin="round"></path>
    <path d="M20.0801 73H59.9201" stroke="#3F3D56" stroke-width="5" stroke-linecap="round" stroke-linejoin="round"></path>
    <path d="M31.4598 56.2C31.4598 62.08 29.4598 69.08 26.3398 73" stroke="#3F3D56" stroke-width="5" stroke-linecap="round" stroke-linejoin="round"></path>
    <path d="M53.66 73C50.53 69.08 48.54 62.08 48.54 56.2" stroke="#3F3D56" stroke-width="5" stroke-linecap="round" stroke-linejoin="round"></path>
  </symbol>

  <symbol fill="none" xmlns="http://www.w3.org/2000/svg" viewBox="0 0 118 71" id="video-games">
    <path d="M33.5701 24C34.227 24.0069 34.8649 23.78 35.3701 23.36C35.5983 23.1724 35.7821 22.9365 35.9084 22.6694C36.0346 22.4022 36.1 22.1105 36.1 21.815C36.1 21.5195 36.0346 21.2278 35.9084 20.9606C35.7821 20.6935 35.5983 20.4576 35.3701 20.27C34.8649 19.85 34.227 19.6231 33.5701 19.63H29.7601V16.35C29.7584 16.0521 29.6902 15.7583 29.5604 15.4902C29.4307 15.222 29.2426 14.9862 29.0101 14.8C28.5032 14.3866 27.8691 14.1608 27.2151 14.1608C26.561 14.1608 25.9269 14.3866 25.4201 14.8C25.1875 14.9862 24.9995 15.222 24.8697 15.4902C24.74 15.7583 24.6718 16.0521 24.6701 16.35V19.63H20.86C20.2031 19.6231 19.5652 19.85 19.0601 20.27C18.8318 20.4576 18.648 20.6935 18.5218 20.9606C18.3955 21.2278 18.3301 21.5195 18.3301 21.815C18.3301 22.1105 18.3955 22.4022 18.5218 22.6694C18.648 22.9365 18.8318 23.1724 19.0601 23.36C19.5652 23.78 20.2031 24.0069 20.86 24H24.6701V27.28C24.6718 27.5779 24.74 27.8717 24.8697 28.1398C24.9995 28.408 25.1875 28.6438 25.4201 28.83C25.9269 29.2434 26.561 29.4692 27.2151 29.4692C27.8691 29.4692 28.5032 29.2434 29.0101 28.83C29.2426 28.6438 29.4307 28.408 29.5604 28.1398C29.6902 27.8717 29.7584 27.5779 29.7601 27.28V24H33.5701Z" fill="#3F3D56"></path>
    <path d="M90.7802 18.5C91.1983 18.4369 91.5895 18.2551 91.9073 17.9764C92.2252 17.6976 92.4565 17.3335 92.5737 16.9273C92.6908 16.5211 92.689 16.0897 92.5685 15.6845C92.4479 15.2793 92.2136 14.9171 91.8934 14.641C91.5732 14.3649 91.1805 14.1865 90.7619 14.1269C90.3433 14.0673 89.9164 14.1289 89.5319 14.3046C89.1473 14.4803 88.8212 14.7627 88.5923 15.1181C88.3633 15.4736 88.2411 15.8872 88.2402 16.31C88.2914 16.9354 88.5864 17.5156 89.0616 17.9253C89.5368 18.335 90.1541 18.5415 90.7802 18.5Z" fill="#3F3D56"></path>
    <path d="M90.7802 29.43C91.1983 29.3669 91.5895 29.1851 91.9073 28.9064C92.2252 28.6276 92.4565 28.2635 92.5737 27.8573C92.6908 27.4511 92.689 27.0197 92.5685 26.6145C92.4479 26.2093 92.2136 25.8471 91.8934 25.571C91.5732 25.2949 91.1805 25.1165 90.7619 25.0569C90.3433 24.9973 89.9164 25.0589 89.5319 25.2346C89.1473 25.4103 88.8212 25.6926 88.5923 26.0481C88.3633 26.4035 88.2411 26.8172 88.2402 27.24C88.2914 27.8654 88.5864 28.4455 89.0616 28.8553C89.5368 29.265 90.1541 29.4715 90.7802 29.43Z" fill="#3F3D56"></path>
    <path d="M97.1401 24C97.5586 23.9368 97.9501 23.7547 98.2682 23.4755C98.5862 23.1963 98.8174 22.8316 98.9342 22.4248C99.051 22.0181 99.0486 21.5863 98.9272 21.1809C98.8058 20.7754 98.5706 20.4134 98.2494 20.1377C97.9283 19.8621 97.5347 19.6845 97.1156 19.626C96.6964 19.5675 96.2692 19.6305 95.8849 19.8077C95.5005 19.9849 95.1752 20.2687 94.9474 20.6254C94.7196 20.9821 94.5991 21.3968 94.6001 21.82C94.6537 22.4436 94.9498 23.0212 95.4247 23.4289C95.8997 23.8365 96.5156 24.0416 97.1401 24Z" fill="#3F3D56"></path>
    <path d="M84.4299 24C84.8476 23.935 85.2379 23.7515 85.5544 23.4714C85.871 23.1912 86.1006 22.8262 86.216 22.4195C86.3314 22.0128 86.3277 21.5816 86.2054 21.177C86.0831 20.7723 85.8473 20.4112 85.5259 20.1365C85.2046 19.8618 84.8113 19.685 84.3926 19.6271C83.9738 19.5693 83.5472 19.6327 83.1635 19.8099C82.7797 19.9871 82.4547 20.2707 82.2272 20.627C81.9997 20.9833 81.8792 21.3973 81.8799 21.82C81.9335 22.4455 82.231 23.0247 82.7081 23.4326C83.1852 23.8405 83.8037 24.0443 84.4299 24Z" fill="#3F3D56"></path>
    <path d="M39.9302 31.62C38.1993 31.6125 36.4965 32.0572 34.9902 32.91C33.5751 33.6952 32.4314 34.8912 31.7102 36.34C31.037 37.7144 30.857 39.2786 31.2002 40.77C31.5727 42.3043 32.428 43.6784 33.6402 44.69C34.939 45.7869 36.5119 46.5095 38.1902 46.78C39.9154 47.0802 41.6887 46.9321 43.3402 46.35C44.9139 45.8081 46.3011 44.8301 47.3402 43.53C48.3026 42.3177 48.8307 40.8178 48.8402 39.27C48.8229 38.233 48.5806 37.2122 48.13 36.2781C47.6793 35.344 47.0311 34.5189 46.2302 33.86C44.4643 32.3864 42.23 31.592 39.9302 31.62ZM39.9302 42.55C39.1879 42.5532 38.4574 42.3637 37.8102 42C37.2031 41.666 36.7142 41.1526 36.4102 40.53C36.1194 39.9412 36.0417 39.2697 36.1902 38.63C36.342 37.9801 36.6913 37.3932 37.1902 36.95C37.7639 36.4775 38.4552 36.1699 39.1902 36.06C39.9268 35.9285 40.6849 35.9905 41.3902 36.24C42.0639 36.4722 42.6571 36.892 43.1002 37.45C43.5081 37.9696 43.7331 38.6094 43.7402 39.27C43.734 39.714 43.6315 40.1513 43.4399 40.5518C43.2482 40.9523 42.972 41.3066 42.6302 41.59C41.8732 42.2212 40.9158 42.5616 39.9302 42.55Z" fill="#3F3D56"></path>
    <path d="M78.0699 31.62C76.339 31.6125 74.6361 32.0572 73.1299 32.91C71.7148 33.6952 70.5711 34.8912 69.8499 36.34C69.1767 37.7144 68.9966 39.2786 69.3399 40.77C69.7162 42.3027 70.5709 43.6756 71.7799 44.69C73.0786 45.7869 74.6515 46.5095 76.3299 46.78C78.055 47.0802 79.8284 46.9321 81.4799 46.35C83.0535 45.8081 84.4408 44.8301 85.4799 43.53C86.4422 42.3177 86.9704 40.8178 86.9799 39.27C86.9626 38.233 86.7203 37.2122 86.2696 36.2781C85.819 35.344 85.1708 34.5189 84.3699 33.86C82.6065 32.3886 80.3763 31.5944 78.0799 31.62H78.0699ZM78.0699 42.55C77.3445 42.5446 76.6323 42.3554 75.9999 42C75.3948 41.6635 74.9065 41.1508 74.5999 40.53C74.3091 39.9412 74.2313 39.2697 74.3799 38.63C74.5317 37.9801 74.881 37.3933 75.3799 36.95C75.9536 36.4776 76.6449 36.1699 77.3799 36.06C78.1164 35.9285 78.8745 35.9905 79.5799 36.24C80.2535 36.4722 80.8468 36.892 81.2899 37.45C81.6978 37.9697 81.9227 38.6094 81.9299 39.27C81.9236 39.714 81.8211 40.1513 81.6295 40.5518C81.4379 40.9523 81.1617 41.3066 80.8199 41.59C80.0685 42.2357 79.1105 42.5905 78.1199 42.59L78.0699 42.55Z" fill="#3F3D56"></path>
    <path d="M53.9098 25.06H51.3698C50.7132 25.0549 50.0758 25.2815 49.5698 25.7C49.3416 25.8876 49.1577 26.1235 49.0315 26.3906C48.9053 26.6578 48.8398 26.9495 48.8398 27.245C48.8398 27.5404 48.9053 27.8322 49.0315 28.0994C49.1577 28.3665 49.3416 28.6024 49.5698 28.79C50.0758 29.2085 50.7132 29.4351 51.3698 29.43H53.9098C54.567 29.4386 55.2056 29.2116 55.7098 28.79C55.938 28.6024 56.1219 28.3665 56.2481 28.0994C56.3743 27.8322 56.4398 27.5404 56.4398 27.245C56.4398 26.9495 56.3743 26.6578 56.2481 26.3906C56.1219 26.1235 55.938 25.8876 55.7098 25.7C55.2056 25.2784 54.567 25.0514 53.9098 25.06Z" fill="#3F3D56"></path>
    <path d="M66.63 25.06H64.09C63.4328 25.0514 62.7943 25.2784 62.29 25.7C62.0618 25.8876 61.878 26.1235 61.7517 26.3906C61.6255 26.6578 61.5601 26.9495 61.5601 27.245C61.5601 27.5404 61.6255 27.8322 61.7517 28.0994C61.878 28.3665 62.0618 28.6024 62.29 28.79C62.7943 29.2116 63.4328 29.4386 64.09 29.43H66.63C67.2867 29.4351 67.924 29.2085 68.43 28.79C68.6583 28.6024 68.8421 28.3665 68.9683 28.0994C69.0945 27.8322 69.16 27.5404 69.16 27.245C69.16 26.9495 69.0945 26.6578 68.9683 26.3906C68.8421 26.1235 68.6583 25.8876 68.43 25.7C67.924 25.2815 67.2867 25.0549 66.63 25.06Z" fill="#3F3D56"></path>
    <path d="M111.08 15.75C110.263 13.1574 108.899 10.7703 107.08 8.75001C105.167 6.62931 102.866 4.89473 100.3 3.64003C97.6174 2.31497 94.7239 1.46891 91.75 1.14003C87.8352 0.643204 83.8583 1.08811 80.1501 2.43782C76.4419 3.78752 73.1095 6.00303 70.43 8.90003C70.1713 9.16785 69.8574 9.37601 69.51 9.51002C69.1441 9.65475 68.7534 9.72607 68.36 9.71998H49.64C49.247 9.72188 48.857 9.65071 48.49 9.51002C48.1426 9.37601 47.8287 9.16785 47.57 8.90003C44.8889 6.00221 41.5548 3.7863 37.8449 2.43659C34.1349 1.08689 30.1563 0.642386 26.24 1.14003C23.2708 1.47031 20.3814 2.31277 17.7 3.63002C15.1329 4.89143 12.8288 6.62888 10.91 8.75001C9.09126 10.7703 7.72722 13.1574 6.90999 15.75C-3.49001 49.14 -1.24 67.05 13.79 70.51C23.11 72.67 31.59 67.67 39.04 55.66H39.92C44.609 55.7142 49.1766 54.1694 52.87 51.28H65.11C68.8034 54.1694 73.371 55.7142 78.06 55.66C78.35 55.66 78.64 55.66 78.94 55.66C85.26 65.86 92.34 71 100.04 71C101.437 70.993 102.829 70.8286 104.19 70.51C119.23 67.05 121.48 49.14 111.08 15.75ZM102.88 66.29C95.88 67.91 89.07 63.21 82.68 52.34C82.4299 51.9011 82.0488 51.5514 81.59 51.34C81.1064 51.1273 80.5738 51.0512 80.05 51.12C79.3866 51.2043 78.7187 51.2477 78.05 51.25C76.1781 51.2479 74.3219 50.9092 72.57 50.25C70.8923 49.6647 69.3414 48.7653 68 47.6C67.751 47.386 67.4668 47.2169 67.16 47.1C66.8383 46.9886 66.5004 46.9312 66.16 46.93H51.84C51.4996 46.9312 51.1617 46.9886 50.84 47.1C50.5332 47.2169 50.249 47.386 50 47.6C48.6602 48.7997 47.1018 49.73 45.41 50.34C43.6581 50.9992 41.8018 51.338 39.93 51.34C39.2613 51.3377 38.5934 51.2943 37.93 51.21C37.4062 51.1412 36.8736 51.2173 36.39 51.43C35.9312 51.6414 35.55 51.9911 35.3 52.43C28.91 63.3 22.11 68 15.1 66.38C3.7 63.76 2.55999 46.66 11.81 16.97C12.9353 13.5461 15.2107 10.617 18.25 8.68C21.524 6.55651 25.3477 5.43723 29.25 5.46003C30.8322 5.45956 32.4092 5.64072 33.95 6.00001C37.5936 7.01669 40.9048 8.97583 43.55 11.68C44.3026 12.5 45.2284 13.1422 46.26 13.56C47.3364 13.9971 48.4883 14.218 49.65 14.21H68.39C69.5528 14.2193 70.7056 13.9949 71.78 13.55C72.8112 13.136 73.737 12.4971 74.49 11.68C77.1372 8.97629 80.4474 7.01432 84.09 5.99C88.6973 4.92734 93.5298 5.47801 97.78 7.55C99.7476 8.46747 101.508 9.77576 102.954 11.3952C104.399 13.0147 105.501 14.9114 106.19 16.97C115.42 46.57 114.28 63.66 102.88 66.29Z" fill="#3F3D56"></path>
  </symbol>

  <symbol fill="none" xmlns="http://www.w3.org/2000/svg" viewBox="0 0 90 76" id="toys">
    <path d="M86.7499 73H51.4199V51.68V38H86.7499V73Z" stroke="#3F3D56" stroke-width="5" stroke-linecap="round" stroke-linejoin="round"></path>
    <path d="M38.58 73H3.25V51.68V38H38.58V73Z" stroke="#3F3D56" stroke-width="5" stroke-linecap="round" stroke-linejoin="round"></path>
    <path d="M57.85 38H22.52V16.68V3H57.85V38Z" stroke="#3F3D56" stroke-width="5" stroke-linecap="round" stroke-linejoin="round"></path>
    <path d="M20.9099 63.45C25.3447 63.45 28.9399 59.8907 28.9399 55.5C28.9399 51.1093 25.3447 47.55 20.9099 47.55C16.475 47.55 12.8799 51.1093 12.8799 55.5C12.8799 59.8907 16.475 63.45 20.9099 63.45Z" stroke="#3F3D56" stroke-width="5" stroke-linecap="round" stroke-linejoin="round"></path>
    <path d="M59.5498 55.5L69.0898 46.05L78.6198 55.5L69.0898 64.95L59.5498 55.5Z" stroke="#3F3D56" stroke-width="5" stroke-linecap="round" stroke-linejoin="round"></path>
    <path d="M40.1798 10.96L30.5498 26.86H49.8198L40.1798 10.96Z" stroke="#3F3D56" stroke-width="5" stroke-linecap="round" stroke-linejoin="round"></path>
  </symbol>

  <symbol fill="none" xmlns="http://www.w3.org/2000/svg" viewBox="0 0 66 70" id="books">
    <path d="M56.9199 8.75V0H11.2499C8.35894 0.0132322 5.59121 1.17229 3.55355 3.22308C1.51588 5.27387 0.374576 8.04902 0.379901 10.94V59.06C0.374576 61.951 1.51588 64.7261 3.55355 66.7769C5.59121 68.8277 8.35894 69.9868 11.2499 70H65.6199V8.75H56.9199ZM4.72988 10.94C4.72725 10.0812 4.89381 9.23021 5.22005 8.43573C5.54629 7.64125 6.02581 6.91878 6.63124 6.30963C7.23668 5.70048 7.95621 5.21659 8.74868 4.8855C9.54114 4.55441 10.3911 4.38263 11.2499 4.38H52.5699V48.12H11.2499C8.89645 48.1229 6.60785 48.8916 4.72988 50.31V10.94ZM11.2499 65.62C9.51008 65.62 7.84152 64.9288 6.61129 63.6986C5.38105 62.4684 4.6899 60.7998 4.6899 59.06C4.6899 57.3202 5.38105 55.6516 6.61129 54.4214C7.84152 53.1911 9.51008 52.5 11.2499 52.5H56.9199V13.13H61.2699V56.88H19.9999V61.25H61.3199V65.62H11.2499Z" fill="#3F3D56"></path>
  </symbol>

  <symbol fill="none" xmlns="http://www.w3.org/2000/svg" viewBox="0 0 86 72" id="pet">
    <path d="M84.53 32.3L43.42 1.29999C43.1733 1.11959 42.8756 1.02234 42.57 1.02234C42.2644 1.02234 41.9667 1.11959 41.72 1.29999L1.46004 32.2C1.33087 32.2908 1.22313 32.4088 1.14449 32.5457C1.06585 32.6825 1.01819 32.835 1.00484 32.9923C0.991493 33.1496 1.01283 33.3079 1.06728 33.4561C1.12173 33.6043 1.208 33.7387 1.32003 33.85C1.56265 34.0879 1.88208 34.2317 2.22109 34.2556C2.56009 34.2794 2.89648 34.1817 3.17 33.98L12.48 26.82V69.82C12.5006 70.1481 12.6497 70.4548 12.8949 70.6738C13.1401 70.8928 13.4617 71.0064 13.79 70.99H71.23C71.4179 70.9886 71.6035 70.9488 71.7754 70.8732C71.9474 70.7975 72.102 70.6875 72.23 70.55L72.54 70.2C72.724 70.0012 72.8274 69.7409 72.83 69.47V26.56L82.83 34.09C83.0751 34.2738 83.3737 34.3722 83.68 34.37C83.8666 34.3723 84.0517 34.3362 84.2237 34.264C84.3957 34.1917 84.5511 34.0849 84.68 33.95C84.7915 33.8381 84.8771 33.703 84.9307 33.5544C84.9844 33.4058 85.0048 33.2473 84.9905 33.09C84.9762 32.9326 84.9275 32.7804 84.848 32.6439C84.7684 32.5074 84.6599 32.39 84.53 32.3ZM70.23 68.65H15.11V25.26C15.1097 25.126 15.0826 24.9933 15.03 24.87L42.58 3.71002L70.23 24.58V68.65Z" fill="#3F3D56" stroke="#3F3D56" stroke-width="2" stroke-miterlimit="10"></path>
    <path d="M36 37.94C36.1865 37.95 36.3734 37.95 36.56 37.94C37.7952 37.7962 38.9326 37.1972 39.75 36.26C40.2537 35.665 40.6233 34.9685 40.8338 34.2179C41.0443 33.4673 41.0908 32.6801 40.9699 31.91C40.7893 30.4826 40.0643 29.1802 38.9463 28.2747C37.8283 27.3691 36.4037 26.9303 34.9699 27.05C33.7347 27.1938 32.5974 27.7928 31.78 28.73C31.278 29.326 30.9094 30.0226 30.6989 30.7729C30.4885 31.5232 30.4411 32.3099 30.56 33.08C30.7423 34.404 31.3897 35.6198 32.3864 36.5102C33.383 37.4006 34.6639 37.9074 36 37.94ZM33.89 30.13C34.2543 29.6976 34.7687 29.4189 35.33 29.35H35.56C36.2845 29.4254 36.9605 29.7497 37.4728 30.2675C37.9851 30.7853 38.3022 31.4647 38.37 32.19C38.4475 32.6514 38.4251 33.124 38.3043 33.576C38.1836 34.028 37.9673 34.4488 37.6699 34.81C37.3056 35.2424 36.7912 35.5211 36.2299 35.59C35.4685 35.5727 34.7404 35.2739 34.1864 34.7512C33.6323 34.2286 33.2916 33.5192 33.2299 32.76C33.1454 32.2999 33.1606 31.8271 33.2745 31.3734C33.3884 30.9196 33.5983 30.4957 33.89 30.13Z" fill="#3F3D56" stroke="#3F3D56" stroke-width="2" stroke-miterlimit="10"></path>
    <path d="M49.1498 37.89C49.365 37.922 49.5822 37.9387 49.7998 37.94C51.1202 37.8996 52.3849 37.3986 53.3748 36.5238C54.3647 35.6489 55.0173 34.4555 55.2198 33.15C55.3608 32.3808 55.3338 31.5901 55.1405 30.8324C54.9471 30.0746 54.5921 29.3676 54.0998 28.76C53.3221 27.8072 52.2165 27.1795 50.9998 27C49.5716 26.8663 48.1463 27.2837 47.0159 28.1668C45.8855 29.0499 45.1356 30.3319 44.9198 31.75C44.7809 32.5177 44.809 33.3063 45.0023 34.0622C45.1956 34.818 45.5494 35.5233 46.0398 36.13C46.8153 37.0904 47.9273 37.7196 49.1498 37.89ZM47.4798 32.13C47.5645 31.4127 47.8909 30.7456 48.4053 30.2385C48.9197 29.7314 49.5913 29.4146 50.3098 29.34H50.5898C51.1431 29.4205 51.6442 29.7105 51.9898 30.15C52.28 30.5182 52.4874 30.9446 52.5979 31.4002C52.7083 31.8558 52.7192 32.3298 52.6298 32.79C52.548 33.5537 52.1857 34.2599 51.613 34.7717C51.0402 35.2835 50.2979 35.5644 49.5298 35.56C48.9758 35.4806 48.4721 35.1949 48.1198 34.76C47.8332 34.3918 47.6281 33.967 47.5177 33.5136C47.4074 33.0603 47.3945 32.5887 47.4798 32.13Z" fill="#3F3D56" stroke="#3F3D56" stroke-width="2" stroke-miterlimit="10"></path>
    <path d="M59.7102 44.2C60.1912 44.3566 60.6944 44.4342 61.2002 44.43C61.9155 44.4293 62.6233 44.283 63.2802 44C64.0363 43.6676 64.7185 43.1878 65.2868 42.5885C65.8552 41.9893 66.2983 41.2826 66.5902 40.51C67.6902 37.62 66.4302 34.58 63.7802 33.72C62.6046 33.3573 61.3379 33.4282 60.2102 33.92C59.4559 34.2552 58.7752 34.7361 58.2072 35.335C57.6392 35.9339 57.1951 36.639 56.9002 37.41C55.8002 40.3 57.0602 43.34 59.7102 44.2ZM59.3902 38.2C59.5666 37.7306 59.8341 37.3007 60.1773 36.9351C60.5206 36.5696 60.9328 36.2755 61.3902 36.07C61.689 35.9354 62.0125 35.8638 62.3402 35.86C62.5443 35.8607 62.7469 35.8945 62.9402 35.96C64.2302 36.38 64.7902 38.1301 64.1602 39.7801C63.8021 40.727 63.0828 41.4931 62.1602 41.91C61.6778 42.1331 61.1313 42.1757 60.6202 42.0301C59.3102 41.5801 58.7502 39.83 59.3902 38.17V38.2Z" fill="#3F3D56" stroke="#3F3D56" stroke-width="2" stroke-miterlimit="10"></path>
    <path d="M27.3599 53.87V54C27.3599 58.32 31.5399 61.58 37.0799 61.58H48.3899C53.9499 61.58 57.9799 58.39 57.9799 54V53.83C57.9799 46.77 51.1099 41.03 42.6699 41.03C34.2299 41.03 27.3599 46.81 27.3599 53.87ZM42.6699 43.41C49.6699 43.41 55.3599 48.1 55.3599 53.87V54C55.3599 57 52.4299 59.23 48.3599 59.23H37.0799C32.9699 59.23 29.9799 57.03 29.9799 54V53.83C29.9999 48.1 35.6699 43.41 42.6699 43.41Z" fill="#3F3D56" stroke="#3F3D56" stroke-width="2" stroke-miterlimit="10"></path>
    <path d="M29.5302 37.41C29.2383 36.6374 28.7951 35.9308 28.2268 35.3315C27.6584 34.7323 26.9762 34.2524 26.2201 33.92C25.0926 33.4273 23.8256 33.3563 22.6502 33.72C20.0002 34.58 18.7402 37.63 19.8402 40.51C20.1336 41.2818 20.5772 41.9877 21.1453 42.5867C21.7135 43.1858 22.395 43.6662 23.1502 44C23.8106 44.283 24.5216 44.4293 25.2401 44.43C25.7426 44.4335 26.2424 44.3558 26.7201 44.2C29.3801 43.34 30.6402 40.3 29.5302 37.41ZM25.8302 42C25.3156 42.1454 24.7662 42.1029 24.2802 41.88C23.8311 41.6705 23.4277 41.3746 23.0931 41.0091C22.7585 40.6436 22.4993 40.2158 22.3302 39.75C21.6902 38.1 22.2501 36.35 23.5501 35.93C24.0596 35.7766 24.6077 35.8158 25.0902 36.04C26.0128 36.4569 26.7321 37.223 27.0902 38.17C27.6802 39.83 27.1202 41.58 25.8302 42Z" fill="#3F3D56" stroke="#3F3D56" stroke-width="2" stroke-miterlimit="10"></path>
  </symbol>

  <symbol fill="none" xmlns="http://www.w3.org/2000/svg" viewBox="0 0 68 72" id="sports">
    <path d="M57.8401 60.32C63.8483 53.6617 67.1789 45.0149 67.19 36.0465C67.201 27.0782 63.8919 18.4232 57.9002 11.75C57.8669 11.6944 57.8302 11.641 57.7902 11.59C57.7902 11.59 57.7202 11.54 57.6802 11.51C54.6742 8.21622 51.0178 5.58158 46.9419 3.77258C42.8661 1.96358 38.4594 1.01952 34.0002 1C15.7002 1 0.810214 16.7 0.810214 36C0.784203 44.8477 4.02456 53.3938 9.91019 60C9.96344 60.2023 10.0665 60.3879 10.2101 60.54C10.3407 60.6687 10.4977 60.7677 10.6702 60.83C13.6905 64.0533 17.3465 66.6149 21.4073 68.3533C25.468 70.0916 29.8452 70.9688 34.2622 70.9293C38.6793 70.8898 43.0401 69.9346 47.0691 68.124C51.0982 66.3133 54.708 63.6867 57.6702 60.41H57.7301C57.7301 60.41 57.8101 60.35 57.8401 60.32ZM3.35013 37.32H18.8301C18.6234 44.7447 15.9255 51.8842 11.1702 57.59C6.36191 51.9028 3.60735 44.763 3.35013 37.32ZM64.6502 34.68H49.1702C49.4213 27.2789 52.1425 20.1748 56.9002 14.5C61.6691 20.1698 64.3981 27.2756 64.6502 34.68ZM46.6502 34.68H35.2001V3.67999C42.7575 4.00624 49.9077 7.19523 55.2001 12.6C49.9291 18.7769 46.9174 26.5639 46.6602 34.68H46.6502ZM32.6502 34.68H21.2902C21.0045 26.6141 18.0061 18.8805 12.7802 12.73C12.7802 12.73 12.7802 12.73 12.7802 12.68C18.0411 7.26594 25.1601 4.0495 32.7001 3.67999V34.68H32.6502ZM21.3002 37.32H32.6502V68.32C25.188 67.9554 18.1353 64.8002 12.8902 59.48C18.1456 53.2696 21.1262 45.4528 21.3401 37.32H21.3002ZM35.1602 37.32H46.6202C46.8673 45.4292 49.8607 53.2143 55.1101 59.4C49.8189 64.8064 42.668 67.9958 35.1101 68.32L35.1602 37.32ZM49.1602 37.32H64.6402C64.3881 44.7244 61.6591 51.8302 56.8902 57.5C52.1347 51.8246 49.4169 44.7202 49.1702 37.32H49.1602ZM11.0002 14.59C15.7585 20.235 18.5027 27.3031 18.8002 34.68H3.3201C3.57161 27.315 6.2745 20.2447 11.0002 14.59Z" fill="#3F3D56" stroke="#3F3D56" stroke-miterlimit="10"></path>
  </symbol>
</svg>


