<svg width="90" height="76" viewBox="0 0 90 76" fill="none" xmlns="http://www.w3.org/2000/svg">
  <path d="M86.7499 73H51.4199V51.68V38H86.7499V73Z" stroke="#3F3D56" stroke-width="5" stroke-linecap="round" stroke-linejoin="round"/>
  <path d="M38.58 73H3.25V51.68V38H38.58V73Z" stroke="#3F3D56" stroke-width="5" stroke-linecap="round" stroke-linejoin="round"/>
  <path d="M57.85 38H22.52V16.68V3H57.85V38Z" stroke="#3F3D56" stroke-width="5" stroke-linecap="round" stroke-linejoin="round"/>
  <path d="M20.9099 63.45C25.3447 63.45 28.9399 59.8907 28.9399 55.5C28.9399 51.1093 25.3447 47.55 20.9099 47.55C16.475 47.55 12.8799 51.1093 12.8799 55.5C12.8799 59.8907 16.475 63.45 20.9099 63.45Z" stroke="#3F3D56" stroke-width="5" stroke-linecap="round" stroke-linejoin="round"/>
  <path d="M59.5498 55.5L69.0898 46.05L78.6198 55.5L69.0898 64.95L59.5498 55.5Z" stroke="#3F3D56" stroke-width="5" stroke-linecap="round" stroke-linejoin="round"/>
  <path d="M40.1798 10.96L30.5498 26.86H49.8198L40.1798 10.96Z" stroke="#3F3D56" stroke-width="5" stroke-linecap="round" stroke-linejoin="round"/>
</svg>
