<svg width="118" height="71" viewBox="0 0 118 71" fill="none" xmlns="http://www.w3.org/2000/svg">
  <path d="M33.5701 24C34.227 24.0069 34.8649 23.78 35.3701 23.36C35.5983 23.1724 35.7821 22.9365 35.9084 22.6694C36.0346 22.4022 36.1 22.1105 36.1 21.815C36.1 21.5195 36.0346 21.2278 35.9084 20.9606C35.7821 20.6935 35.5983 20.4576 35.3701 20.27C34.8649 19.85 34.227 19.6231 33.5701 19.63H29.7601V16.35C29.7584 16.0521 29.6902 15.7583 29.5604 15.4902C29.4307 15.222 29.2426 14.9862 29.0101 14.8C28.5032 14.3866 27.8691 14.1608 27.2151 14.1608C26.561 14.1608 25.9269 14.3866 25.4201 14.8C25.1875 14.9862 24.9995 15.222 24.8697 15.4902C24.74 15.7583 24.6718 16.0521 24.6701 16.35V19.63H20.86C20.2031 19.6231 19.5652 19.85 19.0601 20.27C18.8318 20.4576 18.648 20.6935 18.5218 20.9606C18.3955 21.2278 18.3301 21.5195 18.3301 21.815C18.3301 22.1105 18.3955 22.4022 18.5218 22.6694C18.648 22.9365 18.8318 23.1724 19.0601 23.36C19.5652 23.78 20.2031 24.0069 20.86 24H24.6701V27.28C24.6718 27.5779 24.74 27.8717 24.8697 28.1398C24.9995 28.408 25.1875 28.6438 25.4201 28.83C25.9269 29.2434 26.561 29.4692 27.2151 29.4692C27.8691 29.4692 28.5032 29.2434 29.0101 28.83C29.2426 28.6438 29.4307 28.408 29.5604 28.1398C29.6902 27.8717 29.7584 27.5779 29.7601 27.28V24H33.5701Z" fill="#3F3D56"/>
  <path d="M90.7802 18.5C91.1983 18.4369 91.5895 18.2551 91.9073 17.9764C92.2252 17.6976 92.4565 17.3335 92.5737 16.9273C92.6908 16.5211 92.689 16.0897 92.5685 15.6845C92.4479 15.2793 92.2136 14.9171 91.8934 14.641C91.5732 14.3649 91.1805 14.1865 90.7619 14.1269C90.3433 14.0673 89.9164 14.1289 89.5319 14.3046C89.1473 14.4803 88.8212 14.7627 88.5923 15.1181C88.3633 15.4736 88.2411 15.8872 88.2402 16.31C88.2914 16.9354 88.5864 17.5156 89.0616 17.9253C89.5368 18.335 90.1541 18.5415 90.7802 18.5Z" fill="#3F3D56"/>
  <path d="M90.7802 29.43C91.1983 29.3669 91.5895 29.1851 91.9073 28.9064C92.2252 28.6276 92.4565 28.2635 92.5737 27.8573C92.6908 27.4511 92.689 27.0197 92.5685 26.6145C92.4479 26.2093 92.2136 25.8471 91.8934 25.571C91.5732 25.2949 91.1805 25.1165 90.7619 25.0569C90.3433 24.9973 89.9164 25.0589 89.5319 25.2346C89.1473 25.4103 88.8212 25.6926 88.5923 26.0481C88.3633 26.4035 88.2411 26.8172 88.2402 27.24C88.2914 27.8654 88.5864 28.4455 89.0616 28.8553C89.5368 29.265 90.1541 29.4715 90.7802 29.43Z" fill="#3F3D56"/>
  <path d="M97.1401 24C97.5586 23.9368 97.9501 23.7547 98.2682 23.4755C98.5862 23.1963 98.8174 22.8316 98.9342 22.4248C99.051 22.0181 99.0486 21.5863 98.9272 21.1809C98.8058 20.7754 98.5706 20.4134 98.2494 20.1377C97.9283 19.8621 97.5347 19.6845 97.1156 19.626C96.6964 19.5675 96.2692 19.6305 95.8849 19.8077C95.5005 19.9849 95.1752 20.2687 94.9474 20.6254C94.7196 20.9821 94.5991 21.3968 94.6001 21.82C94.6537 22.4436 94.9498 23.0212 95.4247 23.4289C95.8997 23.8365 96.5156 24.0416 97.1401 24Z" fill="#3F3D56"/>
  <path d="M84.4299 24C84.8476 23.935 85.2379 23.7515 85.5544 23.4714C85.871 23.1912 86.1006 22.8262 86.216 22.4195C86.3314 22.0128 86.3277 21.5816 86.2054 21.177C86.0831 20.7723 85.8473 20.4112 85.5259 20.1365C85.2046 19.8618 84.8113 19.685 84.3926 19.6271C83.9738 19.5693 83.5472 19.6327 83.1635 19.8099C82.7797 19.9871 82.4547 20.2707 82.2272 20.627C81.9997 20.9833 81.8792 21.3973 81.8799 21.82C81.9335 22.4455 82.231 23.0247 82.7081 23.4326C83.1852 23.8405 83.8037 24.0443 84.4299 24Z" fill="#3F3D56"/>
  <path d="M39.9302 31.62C38.1993 31.6125 36.4965 32.0572 34.9902 32.91C33.5751 33.6952 32.4314 34.8912 31.7102 36.34C31.037 37.7144 30.857 39.2786 31.2002 40.77C31.5727 42.3043 32.428 43.6784 33.6402 44.69C34.939 45.7869 36.5119 46.5095 38.1902 46.78C39.9154 47.0802 41.6887 46.9321 43.3402 46.35C44.9139 45.8081 46.3011 44.8301 47.3402 43.53C48.3026 42.3177 48.8307 40.8178 48.8402 39.27C48.8229 38.233 48.5806 37.2122 48.13 36.2781C47.6793 35.344 47.0311 34.5189 46.2302 33.86C44.4643 32.3864 42.23 31.592 39.9302 31.62ZM39.9302 42.55C39.1879 42.5532 38.4574 42.3637 37.8102 42C37.2031 41.666 36.7142 41.1526 36.4102 40.53C36.1194 39.9412 36.0417 39.2697 36.1902 38.63C36.342 37.9801 36.6913 37.3932 37.1902 36.95C37.7639 36.4775 38.4552 36.1699 39.1902 36.06C39.9268 35.9285 40.6849 35.9905 41.3902 36.24C42.0639 36.4722 42.6571 36.892 43.1002 37.45C43.5081 37.9696 43.7331 38.6094 43.7402 39.27C43.734 39.714 43.6315 40.1513 43.4399 40.5518C43.2482 40.9523 42.972 41.3066 42.6302 41.59C41.8732 42.2212 40.9158 42.5616 39.9302 42.55Z" fill="#3F3D56"/>
  <path d="M78.0699 31.62C76.339 31.6125 74.6361 32.0572 73.1299 32.91C71.7148 33.6952 70.5711 34.8912 69.8499 36.34C69.1767 37.7144 68.9966 39.2786 69.3399 40.77C69.7162 42.3027 70.5709 43.6756 71.7799 44.69C73.0786 45.7869 74.6515 46.5095 76.3299 46.78C78.055 47.0802 79.8284 46.9321 81.4799 46.35C83.0535 45.8081 84.4408 44.8301 85.4799 43.53C86.4422 42.3177 86.9704 40.8178 86.9799 39.27C86.9626 38.233 86.7203 37.2122 86.2696 36.2781C85.819 35.344 85.1708 34.5189 84.3699 33.86C82.6065 32.3886 80.3763 31.5944 78.0799 31.62H78.0699ZM78.0699 42.55C77.3445 42.5446 76.6323 42.3554 75.9999 42C75.3948 41.6635 74.9065 41.1508 74.5999 40.53C74.3091 39.9412 74.2313 39.2697 74.3799 38.63C74.5317 37.9801 74.881 37.3933 75.3799 36.95C75.9536 36.4776 76.6449 36.1699 77.3799 36.06C78.1164 35.9285 78.8745 35.9905 79.5799 36.24C80.2535 36.4722 80.8468 36.892 81.2899 37.45C81.6978 37.9697 81.9227 38.6094 81.9299 39.27C81.9236 39.714 81.8211 40.1513 81.6295 40.5518C81.4379 40.9523 81.1617 41.3066 80.8199 41.59C80.0685 42.2357 79.1105 42.5905 78.1199 42.59L78.0699 42.55Z" fill="#3F3D56"/>
  <path d="M53.9098 25.06H51.3698C50.7132 25.0549 50.0758 25.2815 49.5698 25.7C49.3416 25.8876 49.1577 26.1235 49.0315 26.3906C48.9053 26.6578 48.8398 26.9495 48.8398 27.245C48.8398 27.5404 48.9053 27.8322 49.0315 28.0994C49.1577 28.3665 49.3416 28.6024 49.5698 28.79C50.0758 29.2085 50.7132 29.4351 51.3698 29.43H53.9098C54.567 29.4386 55.2056 29.2116 55.7098 28.79C55.938 28.6024 56.1219 28.3665 56.2481 28.0994C56.3743 27.8322 56.4398 27.5404 56.4398 27.245C56.4398 26.9495 56.3743 26.6578 56.2481 26.3906C56.1219 26.1235 55.938 25.8876 55.7098 25.7C55.2056 25.2784 54.567 25.0514 53.9098 25.06Z" fill="#3F3D56"/>
  <path d="M66.63 25.06H64.09C63.4328 25.0514 62.7943 25.2784 62.29 25.7C62.0618 25.8876 61.878 26.1235 61.7517 26.3906C61.6255 26.6578 61.5601 26.9495 61.5601 27.245C61.5601 27.5404 61.6255 27.8322 61.7517 28.0994C61.878 28.3665 62.0618 28.6024 62.29 28.79C62.7943 29.2116 63.4328 29.4386 64.09 29.43H66.63C67.2867 29.4351 67.924 29.2085 68.43 28.79C68.6583 28.6024 68.8421 28.3665 68.9683 28.0994C69.0945 27.8322 69.16 27.5404 69.16 27.245C69.16 26.9495 69.0945 26.6578 68.9683 26.3906C68.8421 26.1235 68.6583 25.8876 68.43 25.7C67.924 25.2815 67.2867 25.0549 66.63 25.06Z" fill="#3F3D56"/>
  <path d="M111.08 15.75C110.263 13.1574 108.899 10.7703 107.08 8.75001C105.167 6.62931 102.866 4.89473 100.3 3.64003C97.6174 2.31497 94.7239 1.46891 91.75 1.14003C87.8352 0.643204 83.8583 1.08811 80.1501 2.43782C76.4419 3.78752 73.1095 6.00303 70.43 8.90003C70.1713 9.16785 69.8574 9.37601 69.51 9.51002C69.1441 9.65475 68.7534 9.72607 68.36 9.71998H49.64C49.247 9.72188 48.857 9.65071 48.49 9.51002C48.1426 9.37601 47.8287 9.16785 47.57 8.90003C44.8889 6.00221 41.5548 3.7863 37.8449 2.43659C34.1349 1.08689 30.1563 0.642386 26.24 1.14003C23.2708 1.47031 20.3814 2.31277 17.7 3.63002C15.1329 4.89143 12.8288 6.62888 10.91 8.75001C9.09126 10.7703 7.72722 13.1574 6.90999 15.75C-3.49001 49.14 -1.24 67.05 13.79 70.51C23.11 72.67 31.59 67.67 39.04 55.66H39.92C44.609 55.7142 49.1766 54.1694 52.87 51.28H65.11C68.8034 54.1694 73.371 55.7142 78.06 55.66C78.35 55.66 78.64 55.66 78.94 55.66C85.26 65.86 92.34 71 100.04 71C101.437 70.993 102.829 70.8286 104.19 70.51C119.23 67.05 121.48 49.14 111.08 15.75ZM102.88 66.29C95.88 67.91 89.07 63.21 82.68 52.34C82.4299 51.9011 82.0488 51.5514 81.59 51.34C81.1064 51.1273 80.5738 51.0512 80.05 51.12C79.3866 51.2043 78.7187 51.2477 78.05 51.25C76.1781 51.2479 74.3219 50.9092 72.57 50.25C70.8923 49.6647 69.3414 48.7653 68 47.6C67.751 47.386 67.4668 47.2169 67.16 47.1C66.8383 46.9886 66.5004 46.9312 66.16 46.93H51.84C51.4996 46.9312 51.1617 46.9886 50.84 47.1C50.5332 47.2169 50.249 47.386 50 47.6C48.6602 48.7997 47.1018 49.73 45.41 50.34C43.6581 50.9992 41.8018 51.338 39.93 51.34C39.2613 51.3377 38.5934 51.2943 37.93 51.21C37.4062 51.1412 36.8736 51.2173 36.39 51.43C35.9312 51.6414 35.55 51.9911 35.3 52.43C28.91 63.3 22.11 68 15.1 66.38C3.7 63.76 2.55999 46.66 11.81 16.97C12.9353 13.5461 15.2107 10.617 18.25 8.68C21.524 6.55651 25.3477 5.43723 29.25 5.46003C30.8322 5.45956 32.4092 5.64072 33.95 6.00001C37.5936 7.01669 40.9048 8.97583 43.55 11.68C44.3026 12.5 45.2284 13.1422 46.26 13.56C47.3364 13.9971 48.4883 14.218 49.65 14.21H68.39C69.5528 14.2193 70.7056 13.9949 71.78 13.55C72.8112 13.136 73.737 12.4971 74.49 11.68C77.1372 8.97629 80.4474 7.01432 84.09 5.99C88.6973 4.92734 93.5298 5.47801 97.78 7.55C99.7476 8.46747 101.508 9.77576 102.954 11.3952C104.399 13.0147 105.501 14.9114 106.19 16.97C115.42 46.57 114.28 63.66 102.88 66.29Z" fill="#3F3D56"/>
</svg>
